<svg width="60" height="60" viewBox="0 0 60 60" fill="none" xmlns="http://www.w3.org/2000/svg">
<rect width="60" height="60" rx="30" fill="#C10000"/>
<path d="M17.9997 30C16.533 30 15.333 28.8 15.333 27.3333L15.333 20.6667C15.333 19.2 16.533 18 17.9997 18H28.6663C30.133 18 31.333 19.2 31.333 20.6667V27.3333C31.333 28.8 30.133 30 28.6663 30H25.9997V34L21.9997 30H17.9997ZM41.9997 38C43.4663 38 44.6663 36.8 44.6663 35.3333V28.6667C44.6663 27.2 43.4663 26 41.9997 26H33.9997V27.3333C33.9997 30.2667 31.5997 32.6667 28.6663 32.6667V35.3333C28.6663 36.8 29.8663 38 31.333 38H33.9997V42L37.9997 38H41.9997Z" fill="white"/>
</svg>
