<svg width="57" height="36" viewBox="0 0 57 36" fill="none" xmlns="http://www.w3.org/2000/svg">
<path d="M24.703 5.49356L26.2661 7.05821L29.5965 3.72934C29.0058 3.63035 28.3432 3.71976 27.5896 3.97202C26.6157 4.29932 25.6226 4.86451 24.703 5.49356ZM31.8445 5.99808L28.5236 9.31577L30.0755 10.8677C30.7045 9.94962 31.2681 8.96133 31.5938 7.99061C31.8461 7.24181 31.9371 6.58562 31.8445 5.99808ZM28.1149 13.4222L26.2645 11.5717L23.753 14.0832L25.8893 16.2194L28.1149 13.4222ZM23.884 18.7324L21.4939 16.3391L18.2049 19.6249C19.7951 19.5403 21.3885 19.6888 22.8382 20.0448L23.884 18.7324ZM25.9755 21.2327C26.5339 21.5237 27.0726 21.8512 27.588 22.213C28.0352 22.5259 28.4618 22.8672 28.8653 23.2348L28.9451 23.3082L31.1787 25.5418L28.1388 26.0479H28.1341L28.1165 26.0527C28.038 26.0721 27.9602 26.0945 27.8834 26.1198C27.4881 26.2467 27.1014 26.3993 26.7259 26.5764C25.6434 27.0714 23.9446 28.0085 21.6296 29.7456C21.3901 29.9244 21.1107 30.1448 20.7946 30.3906C19.1916 31.6456 16.6818 33.6109 13.9979 34.6807C12.355 35.3353 10.4918 35.728 8.59989 35.356C6.7271 34.9888 5.01237 33.9111 3.56427 32.0032C1.65795 30.5567 0.58026 28.842 0.21145 26.9692C-0.158957 25.0756 0.232205 23.214 0.8884 21.5711C1.95811 18.8889 3.9219 16.3759 5.17682 14.7745C5.42429 14.4584 5.64461 14.179 5.82343 13.9395C7.56051 11.6244 8.49611 9.92407 8.99264 8.84319C9.24012 8.30354 9.37582 7.91717 9.44927 7.68566C9.47675 7.60155 9.50071 7.51632 9.52111 7.43021L10.0272 4.39032L12.2209 6.58402L12.2241 6.58562L12.2273 6.58881L12.2353 6.59839L12.2592 6.62234C12.37 6.73595 12.4765 6.85365 12.5786 6.97519C13.2515 7.7726 13.8356 8.64094 14.3204 9.56484L21.2751 4.06781C22.5923 3.01407 24.5098 1.63622 26.5758 0.9449C28.6961 0.234421 31.2586 0.178541 33.3293 2.26208C35.3921 4.33763 35.333 6.89216 34.6226 9.00763C33.928 11.0688 32.5518 12.9815 31.4996 14.2971H31.4965L31.4933 14.3051L25.9755 21.2327ZM22.1437 7.45097L19.3385 9.66543L21.4939 11.824L24.0069 9.31418L22.1437 7.45097ZM19.2347 14.0816L16.8159 11.6596L15.5131 12.6909C15.8755 14.155 16.0288 15.7644 15.941 17.3721L19.2347 14.0816ZM13.6882 24.1368L6.87718 30.9478C7.66748 31.7078 8.45779 32.075 9.21297 32.2219C10.2939 32.4343 11.5041 32.2379 12.8149 31.7142C15.0213 30.8361 17.0729 29.2363 18.6983 27.9718C19.0602 27.6898 19.3981 27.429 19.7121 27.1895C21.695 25.7031 23.306 24.7276 24.5433 24.0889C24.02 23.812 23.4754 23.5771 22.9148 23.3864C20.0059 22.4125 16.1645 22.6249 13.6882 24.1368ZM4.61961 28.6903L11.4306 21.8793C12.9474 19.3934 13.1565 15.5329 12.1682 12.6191C11.9802 12.0698 11.7496 11.536 11.4785 11.0225C10.8399 12.2615 9.86438 13.8708 8.37636 15.8554C8.13901 16.1715 7.87876 16.5094 7.59564 16.8692C6.32955 18.4945 4.73297 20.5445 3.85165 22.7526C3.32957 24.0618 3.13319 25.2752 3.34394 26.3545C3.49242 27.1081 3.85964 27.9 4.61961 28.6903Z" fill="#12B76A"/>
<path d="M20.6385 34.0282L16.117 28.0889V34.0282H12.8408V20.5786H16.117V26.4795L20.6002 20.5786H24.4512L19.2399 27.1693L24.6428 34.0282H20.6385Z" fill="#101828"/>
<path d="M25.6441 27.2842C25.6441 25.9559 25.9315 24.7744 26.5063 23.7398C27.081 22.6924 27.8793 21.8814 28.9011 21.3066C29.9357 20.7191 31.1044 20.4253 32.4072 20.4253C34.0038 20.4253 35.3705 20.8468 36.5072 21.6898C37.644 22.5328 38.404 23.6823 38.7872 25.1384H35.1853C34.917 24.5764 34.5339 24.1485 34.0357 23.8548C33.5504 23.561 32.9948 23.4141 32.3689 23.4141C31.3599 23.4141 30.5424 23.7653 29.9166 24.4678C29.2907 25.1703 28.9778 26.1091 28.9778 27.2842C28.9778 28.4593 29.2907 29.3981 29.9166 30.1006C30.5424 30.8031 31.3599 31.1543 32.3689 31.1543C32.9948 31.1543 33.5504 31.0074 34.0357 30.7137C34.5339 30.4199 34.917 29.992 35.1853 29.43H38.7872C38.404 30.8861 37.644 32.0356 36.5072 32.8786C35.3705 33.7089 34.0038 34.124 32.4072 34.124C31.1044 34.124 29.9357 33.8366 28.9011 33.2618C27.8793 32.6743 27.081 31.8632 26.5063 30.8286C25.9315 29.794 25.6441 28.6126 25.6441 27.2842Z" fill="#101828"/>
<path d="M56.0248 20.5786V34.0282H52.7487V25.9622L49.7407 34.0282H47.0968L44.0696 25.9431V34.0282H40.7935V20.5786H44.6636L48.4379 29.8898L52.1739 20.5786H56.0248Z" fill="#101828"/>
</svg>
