<svg width="60" height="60" viewBox="0 0 60 60" fill="none" xmlns="http://www.w3.org/2000/svg">
<rect width="60" height="60" rx="30" fill="#C10000"/>
<path d="M41 19L19 19C18.4696 19 17.9609 19.2107 17.5858 19.5858C17.2107 19.9609 17 20.4696 17 21L17 39C17 39.5304 17.2107 40.0391 17.5858 40.4142C17.9609 40.7893 18.4696 41 19 41H41C41.5304 41 42.0391 40.7893 42.4142 40.4142C42.7893 40.0391 43 39.5304 43 39V21C43 20.4696 42.7893 19.9609 42.4142 19.5858C42.0391 19.2107 41.5304 19 41 19ZM25.6 32.2C25.8122 32.3591 25.9524 32.596 25.9899 32.8586C26.0275 33.1211 25.9591 33.3878 25.8 33.6C25.6409 33.8122 25.404 33.9524 25.1414 33.99C24.8789 34.0275 24.6122 33.9591 24.4 33.8L20.4 30.8C20.2758 30.7069 20.175 30.5861 20.1056 30.4472C20.0361 30.3084 20 30.1552 20 30C20 29.8448 20.0361 29.6916 20.1056 29.5528C20.175 29.4139 20.2758 29.2931 20.4 29.2L24.4 26.2C24.6122 26.0409 24.8789 25.9725 25.1414 26.0101C25.404 26.0476 25.6409 26.1878 25.8 26.4C25.9591 26.6122 26.0275 26.8789 25.9899 27.1414C25.9524 27.404 25.8122 27.6409 25.6 27.8L22.6663 30L25.6 32.2ZM32.9613 23.275L28.9613 37.275C28.9272 37.4035 28.8678 37.5239 28.7866 37.6292C28.7054 37.7345 28.6041 37.8225 28.4885 37.8882C28.3728 37.9538 28.2453 37.9958 28.1133 38.0115C27.9813 38.0273 27.8475 38.0166 27.7196 37.98C27.5918 37.9434 27.4726 37.8818 27.3689 37.7986C27.2652 37.7154 27.1791 37.6123 27.1157 37.4955C27.0523 37.3786 27.0129 37.2503 26.9996 37.118C26.9864 36.9857 26.9997 36.8521 27.0387 36.725L31.0387 22.725C31.1156 22.4747 31.2876 22.2645 31.5178 22.1396C31.748 22.0147 32.018 21.9851 32.2697 22.0571C32.5215 22.1292 32.735 22.2971 32.8643 22.5248C32.9936 22.7525 33.0284 23.0219 32.9613 23.275ZM39.6 30.8L35.6 33.8C35.3878 33.9591 35.1211 34.0275 34.8586 33.99C34.596 33.9524 34.3591 33.8122 34.2 33.6C34.0409 33.3878 33.9725 33.1211 34.01 32.8586C34.0476 32.596 34.1878 32.3591 34.4 32.2L37.3337 30L34.4 27.8C34.2949 27.7212 34.2064 27.6225 34.1395 27.5095C34.0726 27.3965 34.0286 27.2714 34.01 27.1414C33.9915 27.0114 33.9987 26.879 34.0313 26.7518C34.0639 26.6246 34.1212 26.5051 34.2 26.4C34.2788 26.2949 34.3775 26.2064 34.4905 26.1395C34.6035 26.0726 34.7286 26.0286 34.8586 26.0101C34.9886 25.9915 35.121 25.9987 35.2482 26.0313C35.3754 26.0639 35.4949 26.1212 35.6 26.2L39.6 29.2C39.7242 29.2931 39.825 29.4139 39.8944 29.5528C39.9639 29.6916 40 29.8448 40 30C40 30.1552 39.9639 30.3084 39.8944 30.4472C39.825 30.5861 39.7242 30.7069 39.6 30.8Z" fill="white"/>
</svg>
