<svg width="122" height="52" viewBox="0 0 122 52" fill="none" xmlns="http://www.w3.org/2000/svg">
<path d="M11.0003 22.9697C10.9408 21.4157 11.1969 19.8657 11.753 18.4134C12.3092 16.961 13.1539 15.6364 14.2361 14.5196C15.3184 13.4028 16.6157 12.5169 18.0499 11.9153C19.484 11.3138 21.0252 11.0091 22.5803 11.0197C24.6368 10.9509 26.6702 11.4705 28.4416 12.5174C30.213 13.5643 31.6488 15.095 32.5803 16.9297L30.1803 18.3097C29.532 16.8997 28.4823 15.7122 27.1625 14.8958C25.8427 14.0793 24.3114 13.6703 22.7603 13.7197C17.5403 13.7197 14.0003 17.5897 14.0003 22.9697C14.0003 28.3497 17.5403 32.2297 22.7603 32.2297C24.3215 32.2779 25.8627 31.868 27.1937 31.0505C28.5246 30.2331 29.5872 29.0439 30.2503 27.6297L32.5803 29.0097C31.6488 30.8444 30.213 32.3751 28.4416 33.422C26.6702 34.4689 24.6368 34.9885 22.5803 34.9197C21.0236 34.936 19.4798 34.6352 18.043 34.0357C16.6063 33.4361 15.3066 32.5504 14.2232 31.4323C13.1398 30.3143 12.2953 28.9874 11.7413 27.5325C11.1872 26.0776 10.9351 24.5252 11.0003 22.9697Z" fill="black"/>
<path d="M61.8697 18.0508C63.2171 18.0546 64.5428 18.3905 65.7295 19.0286C66.9162 19.6666 67.9275 20.5873 68.6737 21.7092C69.42 22.8311 69.8783 24.1196 70.0081 25.4607C70.1379 26.8018 69.9352 28.1543 69.418 29.3985C68.9008 30.6426 68.0849 31.7402 67.0426 32.594C66.0003 33.4479 64.7637 34.0318 63.442 34.294C62.1204 34.5562 60.7545 34.4887 59.4652 34.0974C58.1758 33.7062 57.0028 33.0033 56.0497 32.0508L51.8097 28.3008L47.4897 32.1308C46.734 32.8843 45.8372 33.4814 44.8506 33.8881C43.864 34.2948 42.8069 34.503 41.7397 34.5008C40.3891 34.4992 39.0596 34.1645 37.8693 33.5262C36.679 32.8879 35.6645 31.9659 34.9158 30.8417C34.1671 29.7175 33.7073 28.426 33.5772 27.0816C33.4471 25.7372 33.6507 24.3815 34.17 23.1346C34.6892 21.8878 35.508 20.7883 36.5539 19.9336C37.5997 19.0789 38.8403 18.4954 40.1656 18.2349C41.4909 17.9744 42.86 18.0449 44.1516 18.4402C45.4431 18.8354 46.6172 19.5432 47.5697 20.5008L51.8097 24.2508L56.1197 20.4208C57.6471 18.9009 59.7149 18.0486 61.8697 18.0508ZM45.3997 29.9008L49.5197 26.2508L45.4597 22.6708C44.8685 22.0516 44.1329 21.5888 43.3187 21.3241C42.5045 21.0594 41.6374 21.0011 40.7951 21.1543C39.9528 21.3075 39.1618 21.6674 38.4929 22.2018C37.8241 22.7362 37.2985 23.4284 36.9632 24.2161C36.6279 25.0038 36.4935 25.8625 36.572 26.715C36.6505 27.5675 36.9395 28.3871 37.413 29.1003C37.8865 29.8136 38.5298 30.3981 39.2849 30.8013C40.0401 31.2046 40.8836 31.414 41.7397 31.4108C42.4195 31.4147 43.0932 31.2831 43.7216 31.0239C44.35 30.7646 44.9204 30.3828 45.3997 29.9008ZM58.2097 22.6108L54.0897 26.2508L58.1497 29.8408C58.7409 30.46 59.4766 30.9227 60.2907 31.1874C61.1049 31.4521 61.972 31.5105 62.8143 31.3573C63.6566 31.2041 64.4477 30.8442 65.1165 30.3097C65.7853 29.7753 66.3109 29.0832 66.6462 28.2955C66.9815 27.5078 67.1159 26.6491 67.0374 25.7966C66.9589 24.9441 66.6699 24.1245 66.1964 23.4112C65.7229 22.698 65.0797 22.1135 64.3245 21.7102C63.5693 21.307 62.7258 21.0976 61.8697 21.1008C61.19 21.0969 60.5162 21.2284 59.8878 21.4877C59.2595 21.7469 58.689 22.1287 58.2097 22.6108Z" fill="black"/>
<path d="M87.1301 26.1607C87.1301 31.2807 83.7801 34.9207 79.2501 34.9207C77.9953 34.977 76.7502 34.6773 75.6585 34.0562C74.5667 33.4351 73.6729 32.518 73.0801 31.4107V41.0207H70.3301V17.8507H73.0801V20.8507C73.6729 19.7433 74.5667 18.8262 75.6585 18.2051C76.7502 17.5841 77.9953 17.2844 79.2501 17.3407C83.7801 17.3907 87.1301 21.0407 87.1301 26.1607ZM84.2401 26.1607C84.3078 24.5247 83.7459 22.925 82.6701 21.6907C82.1606 21.1202 81.5319 20.6686 80.8286 20.3679C80.1253 20.0672 79.3645 19.9248 78.6001 19.9507C77.8314 19.9265 77.0667 20.0696 76.3588 20.37C75.6509 20.6705 75.0167 21.1211 74.5001 21.6907C73.4608 22.9419 72.9259 24.5359 73.0001 26.1607C72.9414 27.7888 73.4943 29.3799 74.5501 30.6207C75.0667 31.1903 75.7009 31.6409 76.4088 31.9413C77.1167 32.2418 77.8814 32.3848 78.6501 32.3607C79.4145 32.3865 80.1753 32.2441 80.8786 31.9434C81.582 31.6427 82.2106 31.1912 82.7201 30.6207C83.7764 29.3819 84.32 27.7867 84.2401 26.1607Z" fill="black"/>
<path d="M111.15 34.5H104.55L100.32 27.5L96.0502 34.5H89.4502L96.8002 22.81L89.6502 11.5H96.0802L100.32 18.36L104.52 11.5H111L103.84 22.83L111.15 34.5Z" fill="black"/>
</svg>
