<svg width="60" height="60" viewBox="0 0 60 60" fill="none" xmlns="http://www.w3.org/2000/svg">
<rect width="60" height="60" rx="30" fill="#C10000"/>
<path d="M33 30V28L40.171 28L37.878 25.707L39.292 24.293L44 29L39.292 33.707L37.878 32.293L40.171 30L33 30ZM31 26H29V19.828L26.707 22.121L25.293 20.707L30 16L34.707 20.707L33.293 22.121L31 19.828V26ZM31 34.101V32C30.9987 30.9395 30.5768 29.9229 29.827 29.173C29.0771 28.4232 28.0605 28.0013 27 28H19.828L22.121 25.707L20.707 24.293L16 29L20.707 33.707L22.121 32.293L19.828 30H27C27.5302 30.0008 28.0384 30.2118 28.4133 30.5867C28.7882 30.9616 28.9992 31.4698 29 32V34.101C27.786 34.3488 26.7072 35.0386 25.9728 36.0366C25.2384 37.0346 24.9008 38.2697 25.0253 39.5025C25.1499 40.7353 25.7277 41.878 26.6468 42.7089C27.566 43.5399 28.7609 44 30 44C31.2391 44 32.434 43.5399 33.3532 42.7089C34.2723 41.878 34.8501 40.7353 34.9747 39.5025C35.0992 38.2697 34.7616 37.0346 34.0272 36.0366C33.2928 35.0386 32.214 34.3488 31 34.101ZM30 42C29.4067 42 28.8266 41.8241 28.3333 41.4944C27.8399 41.1648 27.4554 40.6962 27.2284 40.1481C27.0013 39.5999 26.9419 38.9967 27.0576 38.4147C27.1734 37.8328 27.4591 37.2982 27.8787 36.8787C28.2982 36.4591 28.8328 36.1734 29.4147 36.0576C29.9967 35.9419 30.5999 36.0013 31.1481 36.2284C31.6962 36.4554 32.1648 36.8399 32.4944 37.3333C32.8241 37.8266 33 38.4067 33 39C32.9992 39.7954 32.6829 40.558 32.1204 41.1204C31.558 41.6829 30.7954 41.9992 30 42Z" fill="white"/>
</svg>
