<svg width="168" height="38" viewBox="0 0 168 38" fill="none" xmlns="http://www.w3.org/2000/svg">
<g clip-path="url(#clip0_2396_10083)">
<path d="M0.666016 29.89V14H11.086V16.42H3.66602V20.74H10.366V23.15H3.66602V29.92L0.666016 29.89Z" fill="black"/>
<path d="M16.7168 14V29.89H13.7168V14H16.7168Z" fill="black"/>
<path d="M41.666 29.89V14H52.236V16.42H44.606V20.74H51.666V23.15H44.606V27.5H52.296V29.92L41.666 29.89Z" fill="black"/>
<path d="M55.2363 29.89V14H61.3363C62.422 13.9635 63.501 14.1827 64.4863 14.64C65.294 15.0257 65.9667 15.6461 66.4163 16.42C66.8613 17.2384 67.0854 18.1586 67.0663 19.09C67.0896 20.0199 66.8616 20.9389 66.4063 21.75C65.9455 22.51 65.2658 23.113 64.4563 23.48C63.4615 23.9159 62.3819 24.1243 61.2963 24.09H56.9563V21.69H60.9563C61.5415 21.6933 62.1219 21.5847 62.6663 21.37C63.0863 21.193 63.4373 20.8841 63.6663 20.49C63.9059 20.0525 64.0233 19.5585 64.0063 19.06C64.0221 18.5552 63.9048 18.0552 63.6663 17.61C63.4413 17.2057 63.09 16.8861 62.6663 16.7C62.0967 16.4637 61.4825 16.3545 60.8663 16.38H58.1663V29.89H55.2363ZM63.6663 22.67L67.6663 29.89H64.3763L60.3763 22.67H63.6663Z" fill="black"/>
<path d="M27.8064 17.2099L25.3564 19.6199C25.3053 19.6717 25.2645 19.7328 25.2364 19.7999C25.2261 19.8662 25.2261 19.9337 25.2364 19.9999C25.2269 20.0696 25.2269 20.1403 25.2364 20.2099C25.2672 20.2726 25.3077 20.33 25.3564 20.3799L34.2764 29.7199C34.3282 29.7711 34.3893 29.8118 34.4564 29.8399C34.5223 29.8706 34.5938 29.8876 34.6664 29.8899C34.7361 29.8994 34.8067 29.8994 34.8764 29.8899C34.9435 29.8618 35.0046 29.8211 35.0564 29.7699L38.0564 26.8399C38.1075 26.7881 38.1483 26.727 38.1764 26.6599C38.1922 26.5908 38.1922 26.519 38.1764 26.4499C38.1914 26.3841 38.1914 26.3158 38.1764 26.2499C38.1483 26.1828 38.1075 26.1217 38.0564 26.0699L28.5664 17.2099C28.5164 17.1612 28.4591 17.1207 28.3964 17.0899C28.3267 17.0805 28.2561 17.0805 28.1864 17.0899C28.1171 17.0757 28.0457 17.0757 27.9764 17.0899C27.9137 17.1207 27.8564 17.1612 27.8064 17.2099ZM25.2164 8.09994L23.2164 10.0999C23.1286 10.19 23.0575 10.295 23.0064 10.4099C22.9584 10.5273 22.9345 10.6531 22.9364 10.7799C22.9398 10.9849 23.0061 11.1839 23.1264 11.3499H23.0664C22.673 11.2884 22.2708 11.3738 21.9364 11.5899C21.4864 11.9026 21.0617 12.2504 20.6664 12.6299C19.5895 13.7396 18.7372 15.0469 18.1564 16.4799C17.8395 17.2267 17.673 18.0287 17.6664 18.8399C17.6526 19.8843 18.0066 20.9003 18.6664 21.7099C19.0375 22.1129 19.5348 22.3775 20.0764 22.4599L20.5264 21.7499C20.5264 21.7499 20.4364 21.3899 20.3664 21.1299C20.3097 20.8605 20.2928 20.5842 20.3164 20.3099C20.3773 19.7421 20.5802 19.1987 20.9064 18.7299C21.1333 18.4636 21.4177 18.2524 21.7382 18.1121C22.0587 17.9717 22.4068 17.906 22.7564 17.9199C23.4341 18.1569 24.0591 18.5237 24.5964 18.9999C24.6636 19.0556 24.7492 19.0841 24.8364 19.0799C24.9203 19.0826 25.0022 19.0541 25.0664 18.9999L27.0664 16.9999C27.1008 16.9701 27.1283 16.9332 27.1473 16.8918C27.1663 16.8504 27.1762 16.8055 27.1764 16.7599C27.1775 16.6685 27.1455 16.5797 27.0864 16.5099C26.5864 15.9799 25.8264 15.1599 25.7064 14.9699C25.5756 14.7737 25.487 14.5523 25.4464 14.3199C25.4273 14.1457 25.466 13.9701 25.5564 13.8199L25.6364 13.8999C25.7243 13.988 25.83 14.0562 25.9464 14.0999C26.0644 14.1526 26.1922 14.1798 26.3214 14.1798C26.4506 14.1798 26.5784 14.1526 26.6964 14.0999C26.812 14.0501 26.9172 13.9788 27.0064 13.8899L29.0064 11.9399C29.0708 11.8727 29.1067 11.7831 29.1064 11.6899C29.1038 11.5974 29.0684 11.5088 29.0064 11.4399L25.7264 8.10994C25.6998 8.06091 25.6576 8.02219 25.6064 7.99994C25.5636 7.99075 25.5193 7.99075 25.4764 7.99994C25.4303 7.9896 25.3825 7.9896 25.3364 7.99994C25.2864 8.01896 25.2441 8.05416 25.2164 8.09994Z" fill="black"/>
<path d="M34.536 14H39.806L23.436 30H18.166L34.536 14Z" fill="black"/>
<path d="M162.305 0H89.5052C88.8179 0.000833517 88.1382 0.143345 87.5085 0.418635C86.8787 0.693926 86.3125 1.09608 85.8452 1.6L72.8452 15.6C71.982 16.5257 71.502 17.7443 71.502 19.01C71.502 20.2757 71.982 21.4943 72.8452 22.42L85.8452 36.42C86.3143 36.9203 86.8813 37.3187 87.5109 37.5905C88.1406 37.8623 88.8194 38.0017 89.5052 38H162.305C163.631 38 164.903 37.4732 165.841 36.5355C166.778 35.5979 167.305 34.3261 167.305 33V5C167.305 3.67392 166.778 2.40215 165.841 1.46447C164.903 0.526784 163.631 0 162.305 0ZM81.8752 22.39C81.2047 22.39 80.5493 22.1912 79.9918 21.8187C79.4343 21.4462 78.9998 20.9167 78.7432 20.2973C78.4867 19.6779 78.4195 18.9962 78.5503 18.3386C78.6811 17.681 79.004 17.077 79.4781 16.6029C79.9522 16.1288 80.5562 15.8059 81.2138 15.6751C81.8714 15.5443 82.553 15.6115 83.1725 15.868C83.7919 16.1246 84.3214 16.5591 84.6939 17.1166C85.0664 17.6741 85.2652 18.3295 85.2652 19C85.2626 19.8983 84.9045 20.759 84.2694 21.3942C83.6342 22.0294 82.7735 22.3874 81.8752 22.39ZM105.755 30.09H103.755L99.8252 16.45H99.6652L95.6652 30.09H93.6652L88.6652 13.45H90.6652L94.6652 27.17H94.8052L98.6652 13.45H100.665L104.665 27.14H104.815L108.815 13.45H110.815L105.755 30.09ZM114.055 30.09H112.115V13.45H114.055V30.09ZM114.125 10.19C113.854 10.445 113.497 10.588 113.125 10.59C112.753 10.59 112.395 10.4468 112.125 10.19C111.99 10.0614 111.883 9.90616 111.81 9.73403C111.738 9.56191 111.702 9.37666 111.705 9.19C111.7 9.00308 111.735 8.81727 111.808 8.64487C111.88 8.47247 111.988 8.31743 112.125 8.19C112.391 7.92686 112.751 7.77951 113.125 7.78C113.499 7.78165 113.858 7.92868 114.125 8.19C114.262 8.31743 114.37 8.47247 114.443 8.64487C114.515 8.81727 114.55 9.00308 114.545 9.19C114.548 9.37666 114.512 9.56191 114.44 9.73403C114.368 9.90616 114.261 10.0614 114.125 10.19ZM123.125 30.19C122.797 30.2634 122.461 30.297 122.125 30.29C121.432 30.2811 120.75 30.1207 120.125 29.82C119.474 29.5132 118.918 29.0365 118.515 28.44C118.082 27.7569 117.866 26.9585 117.895 26.15V15.13H115.405V13.45H117.895V9.45H119.835V13.45H123.355V15.13H119.835V25.74C119.803 26.3082 119.923 26.8747 120.185 27.38C120.399 27.7487 120.725 28.0395 121.115 28.21C121.505 28.3711 121.923 28.4526 122.345 28.45C122.562 28.4672 122.779 28.4672 122.995 28.45L123.465 28.34L123.885 30.09C123.629 30.1597 123.369 30.2098 123.105 30.24L123.125 30.19ZM138.295 30.04H136.355V19.43C136.388 18.8415 136.304 18.2524 136.108 17.6964C135.912 17.1404 135.609 16.6285 135.215 16.19C134.814 15.7812 134.329 15.4634 133.795 15.2581C133.26 15.0528 132.687 14.9648 132.115 15C131.287 14.9821 130.468 15.1748 129.735 15.56C129.046 15.9329 128.477 16.495 128.095 17.18C127.679 17.9497 127.472 18.8152 127.495 19.69V30.09H125.565V7.9H127.495V16.06H127.665C128.046 15.2091 128.673 14.4916 129.465 14C130.413 13.4581 131.494 13.1914 132.585 13.23C133.628 13.202 134.66 13.4394 135.585 13.92C136.442 14.3879 137.139 15.102 137.585 15.97C138.087 17.0099 138.331 18.1557 138.295 19.31V30.04ZM143.365 30.04H141.365V7.9H143.365V30.04ZM159.015 30.04H157.065V19.43C157.099 18.8406 157.014 18.2505 156.817 17.6942C156.619 17.1378 156.313 16.6265 155.915 16.19C155.518 15.7865 155.04 15.4717 154.513 15.2666C153.985 15.0614 153.42 14.9706 152.855 15C152.043 14.9822 151.24 15.1751 150.525 15.56C149.846 15.937 149.288 16.4987 148.915 17.18C148.508 17.9526 148.305 18.8167 148.325 19.69V30.09H146.405V13.45H148.275V16.06H148.445C148.842 15.2288 149.475 14.5331 150.265 14.06C151.197 13.5133 152.265 13.2428 153.345 13.28C154.372 13.2569 155.388 13.498 156.295 13.98C157.153 14.4459 157.851 15.1606 158.295 16.03C158.806 17.0638 159.053 18.2076 159.015 19.36V30.04Z" fill="black"/>
</g>
<defs>
<clipPath id="clip0_2396_10083">
<rect width="167" height="38" fill="white" transform="translate(0.666016)"/>
</clipPath>
</defs>
</svg>
