<svg width="24" height="24" viewBox="0 0 24 24" fill="none" xmlns="http://www.w3.org/2000/svg">
<path d="M20.4375 2.34375L3.9375 2.34375C3.53968 2.34375 3.15814 2.50179 2.87684 2.78309C2.59554 3.06439 2.4375 3.44593 2.4375 3.84375L2.4375 20.3438C2.4375 20.7416 2.59554 21.1231 2.87684 21.4044C3.15814 21.6857 3.53968 21.8437 3.9375 21.8437L20.4375 21.8437C20.8353 21.8437 21.2169 21.6857 21.4982 21.4044C21.7795 21.1231 21.9375 20.7416 21.9375 20.3437L21.9375 3.84375C21.9375 3.44593 21.7795 3.06439 21.4982 2.78309C21.2169 2.50179 20.8353 2.34375 20.4375 2.34375ZM8.415 20.085L5.415 20.085L5.415 9.585L8.415 9.585L8.415 20.085ZM6.915 8.46C5.877 8.46 5.04 7.6215 5.04 6.585C5.04 5.5485 5.877 4.71 6.915 4.71C7.953 4.71 8.79 5.55 8.79 6.585C8.79 7.62 7.9515 8.46 6.915 8.46ZM18.915 20.085L15.915 20.085L15.915 13.71C15.915 13.41 15.612 12.9195 15.399 12.801C15.1177 12.6435 14.454 12.6285 14.1503 12.7755L12.9142 13.3702L12.9142 20.0858L9.91425 20.0858L9.91425 9.58575L12.9142 9.58575L12.9142 10.047C14.1007 9.50475 15.7493 9.558 16.8668 10.185C18.0518 10.8487 18.9142 12.3323 18.9142 13.71L18.915 20.085Z" fill="white"/>
</svg>
