<svg width="25" height="25" viewBox="0 0 25 25" fill="none" xmlns="http://www.w3.org/2000/svg">
<path d="M19.3323 4.29082H5.33228C4.53663 4.29082 3.77356 4.60689 3.21096 5.1695C2.64835 5.73211 2.33228 6.49517 2.33228 7.29082V17.2908C2.33228 18.0865 2.64835 18.8495 3.21096 19.4121C3.77356 19.9747 4.53663 20.2908 5.33228 20.2908H19.3323C20.1279 20.2908 20.891 19.9747 21.4536 19.4121C22.0162 18.8495 22.3323 18.0865 22.3323 17.2908V7.29082C22.3323 6.49517 22.0162 5.73211 21.4536 5.1695C20.891 4.60689 20.1279 4.29082 19.3323 4.29082ZM19.3323 6.29082L12.8323 10.7608C12.6803 10.8486 12.5078 10.8948 12.3323 10.8948C12.1567 10.8948 11.9843 10.8486 11.8323 10.7608L5.33228 6.29082H19.3323Z" fill="#ffffff"/>
</svg>
