<svg width="16" height="16" viewBox="0 0 16 16" fill="none" xmlns="http://www.w3.org/2000/svg">
<path d="M7.99996 14.3325C8.26518 14.3325 8.51953 14.2271 8.70707 14.0396C8.8946 13.852 8.99996 13.5977 8.99996 13.3325L8.99996 5.41245L11.6266 8.03912C11.8162 8.21576 12.0669 8.31192 12.326 8.30735C12.5851 8.30278 12.8322 8.19783 13.0155 8.01462C13.1987 7.8314 13.3036 7.58422 13.3082 7.32515C13.3128 7.06608 13.2166 6.81535 13.04 6.62579L8.70663 2.29245C8.51913 2.10519 8.26496 2 7.99996 2C7.73496 2 7.48079 2.10519 7.29329 2.29245L2.95996 6.62579C2.78332 6.81535 2.68716 7.06608 2.69173 7.32515C2.6963 7.58422 2.80125 7.8314 2.98447 8.01462C3.16768 8.19783 3.41486 8.30278 3.67393 8.30735C3.933 8.31192 4.18373 8.21576 4.37329 8.03912L6.99996 5.41245L6.99996 13.3325C6.99996 13.5977 7.10532 13.852 7.29285 14.0396C7.48039 14.2271 7.73474 14.3325 7.99996 14.3325Z" fill="white"/>
</svg>
