<svg width="25" height="25" viewBox="0 0 25 25" fill="none" xmlns="http://www.w3.org/2000/svg">
<path d="M22.2952 19.1458C22.1617 19.7196 21.8468 20.2351 21.3972 20.6158C20.8953 21.1263 20.2962 21.531 19.6353 21.8062C18.9744 22.0813 18.2651 22.2213 17.5492 22.2178H17.1912C15.7053 22.1404 14.2489 21.7728 12.9042 21.1358C12.5782 20.9828 12.2612 20.8398 11.8842 20.6658C10.3083 19.7758 8.86178 18.6738 7.5852 17.3908C5.92575 15.8345 4.56591 13.9869 3.5732 11.9398C3.02668 10.8231 2.65855 9.62757 2.4822 8.39682C2.23583 7.11432 2.38149 5.78734 2.9002 4.58882C3.22286 4.04471 3.61779 3.54684 4.0742 3.10882C4.28267 2.8814 4.53477 2.69825 4.81548 2.57026C5.0962 2.44227 5.39979 2.37206 5.7082 2.36382C6.04449 2.39937 6.3703 2.50171 6.66651 2.66484C6.96273 2.82798 7.22339 3.04862 7.4332 3.31382C7.9032 3.83382 8.4532 4.33382 8.9532 4.86382L9.5972 5.49782C9.9772 5.83082 10.2122 6.29982 10.2502 6.80382C10.2512 7.26782 10.0802 7.71482 9.7702 8.05982C9.57499 8.30174 9.36738 8.53339 9.1482 8.75382L8.9332 8.97882C8.80799 9.09517 8.71028 9.23797 8.6472 9.39682C8.5952 9.55082 8.5772 9.71482 8.5972 9.87682C8.7612 10.3208 9.0182 10.7248 9.3522 11.0608C9.8722 11.7648 10.3722 12.3778 10.9342 13.1028C11.9035 14.2211 13.0526 15.1698 14.3342 15.9098C14.4572 16.0098 14.6042 16.0768 14.7622 16.1038C14.9022 16.1248 15.0432 16.1038 15.1702 16.0418C15.5596 15.8334 15.906 15.5531 16.1912 15.2158C16.5512 14.7718 17.0732 14.4898 17.6412 14.4288C17.9138 14.4298 18.1835 14.4855 18.4343 14.5925C18.685 14.6995 18.9118 14.8557 19.1012 15.0518C19.3345 15.2532 19.5555 15.4675 19.7642 15.6948L20.0702 16.0218L20.3872 16.3278C20.5802 16.5218 20.7642 16.6958 20.9472 16.8998C21.2805 17.1865 21.5905 17.4962 21.8772 17.8288C22.1702 18.2028 22.3182 18.6708 22.2952 19.1458Z" fill="#F12E45"/>
</svg>
