<svg width="193" height="32" viewBox="0 0 193 32" fill="none" xmlns="http://www.w3.org/2000/svg">
<g clip-path="url(#clip0_2397_9332)">
<path d="M40.3331 25.04V9.4C40.2893 7.91917 40.7165 6.46263 41.5531 5.24C41.8535 4.725 42.2802 4.295 42.7928 3.99057C43.3054 3.68614 43.8872 3.51731 44.4831 3.5V19.12C44.525 20.6068 44.0982 22.0691 43.2631 23.3C42.9613 23.8137 42.5343 24.2427 42.022 24.547C41.5097 24.8512 40.9287 25.0208 40.3331 25.04Z" fill="black"/>
<path d="M59.8029 24.5005V15.2205C59.817 14.5171 59.6947 13.8175 59.4429 13.1605C59.2138 12.5766 58.7945 12.0869 58.2529 11.7705C57.5814 11.399 56.8194 11.2223 56.0529 11.2605C55.2757 11.2479 54.5104 11.4522 53.8429 11.8505C53.2117 12.2683 52.6931 12.8349 52.3329 13.5005C51.9415 14.2104 51.7416 15.01 51.7529 15.8205L50.3329 15.1205C50.3129 13.9056 50.6277 12.7085 51.2429 11.6605C51.8335 10.648 52.6779 9.80699 53.6929 9.22055C54.7132 8.61911 55.8785 8.30791 57.0629 8.32055C58.1976 8.2781 59.324 8.52956 60.3329 9.05055C61.1918 9.52477 61.8885 10.2459 62.3329 11.1205C62.8324 12.1078 63.0765 13.2046 63.0429 14.3105V24.5005H59.8029ZM48.4629 24.5005V8.57055H51.7129V24.5005H48.4629ZM73.5529 24.7705C73.0182 24.7733 72.4849 24.7163 71.9629 24.6005C71.4466 24.502 70.9564 24.2977 70.5229 24.0005C70.0841 23.6721 69.7393 23.2341 69.5229 22.7305C69.2374 22.0475 69.1043 21.3103 69.1329 20.5705V11.2705H65.2729V8.57055H67.2729C67.6275 8.57497 67.9819 8.55157 68.3329 8.50055C68.5381 8.48874 68.7311 8.39937 68.8729 8.25055C69.0103 8.05737 69.0869 7.82755 69.0929 7.59055C69.0929 7.29055 69.0929 6.88055 69.0929 6.36055V3.31055H72.3329V8.57055H77.2329V11.2705H72.3329V19.5005C72.3086 20.1433 72.407 20.7847 72.6229 21.3905C72.7486 21.6313 72.9461 21.8271 73.1879 21.9507C73.4298 22.0743 73.7041 22.1197 73.9729 22.0805C74.2578 22.0834 74.5423 22.0599 74.8229 22.0105C75.0338 21.9709 75.2412 21.9141 75.4429 21.8405V24.5005C75.1923 24.5863 74.9346 24.6499 74.6729 24.6905C74.3026 24.7498 73.9278 24.7766 73.5529 24.7705ZM80.3329 24.5005V8.57055H83.5929V13.6505L82.7229 13.2705C82.7872 12.6243 82.9561 11.9927 83.2229 11.4005C83.4617 10.8227 83.8002 10.2913 84.2229 9.83055C84.6781 9.34991 85.2303 8.97154 85.8429 8.72055C86.5486 8.43987 87.3036 8.30385 88.0629 8.32055C88.5952 8.31018 89.1265 8.37071 89.6429 8.50055C89.8796 8.54143 90.111 8.60851 90.3329 8.70055L89.6429 11.7705C89.4527 11.6508 89.2476 11.5567 89.0329 11.4905C88.6202 11.3729 88.1919 11.319 87.7629 11.3305C87.0704 11.3132 86.3841 11.4642 85.7629 11.7705C85.2438 12.0404 84.8003 12.4357 84.4729 12.9205C84.1567 13.404 83.9266 13.9386 83.7929 14.5005C83.6574 15.057 83.5903 15.6279 83.5929 16.2005V24.5005H80.3329ZM98.2229 24.8205C97.1393 24.8373 96.0628 24.6437 95.0529 24.2505C94.2132 23.9111 93.4857 23.3429 92.9529 22.6105C92.4391 21.8577 92.1766 20.9616 92.2029 20.0505C92.1659 19.0933 92.4629 18.153 93.0429 17.3905C93.666 16.6532 94.4734 16.0942 95.3829 15.7705C96.4776 15.3561 97.6258 15.1002 98.7929 15.0105C100.135 14.8946 101.47 14.7077 102.793 14.4505C103.573 14.2705 103.963 13.9805 103.963 13.5605C103.983 13.1914 103.899 12.824 103.723 12.4992C103.546 12.1744 103.283 11.9049 102.963 11.7205C102.039 11.2405 101.002 11.0227 99.9629 11.0905C98.8691 11.0276 97.78 11.2773 96.8229 11.8105C96.4575 12.0547 96.1638 12.3919 95.9722 12.7875C95.7806 13.183 95.698 13.6224 95.7329 14.0605H92.5329C92.5109 12.9446 92.8629 11.8533 93.5329 10.9605C94.2105 10.076 95.1263 9.40307 96.1729 9.02055C98.5864 8.14795 101.226 8.12677 103.653 8.96055C104.678 9.30793 105.588 9.93065 106.283 10.7605C106.963 11.6097 107.317 12.6734 107.283 13.7605V21.3605C107.283 21.7305 107.283 22.0905 107.283 22.4405C107.306 22.7517 107.359 23.0599 107.443 23.3605C107.518 23.6259 107.626 23.8811 107.763 24.1205C107.853 24.2698 107.957 24.4104 108.073 24.5405H104.833C104.729 24.4241 104.639 24.2967 104.563 24.1605C104.444 23.9394 104.343 23.7086 104.263 23.4705C104.166 23.1946 104.096 22.9099 104.053 22.6205C104.011 22.2654 103.991 21.9081 103.993 21.5505L104.593 21.9705C104.263 22.5872 103.785 23.1127 103.203 23.5005C102.542 23.9615 101.804 24.3002 101.023 24.5005C100.109 24.7369 99.1666 24.8446 98.2229 24.8205ZM98.8929 22.1105C99.7587 22.1235 100.62 21.9778 101.433 21.6805C102.16 21.4109 102.797 20.9433 103.273 20.3305C103.751 19.6612 103.993 18.8524 103.963 18.0305V15.4005L104.733 16.4005C103.968 16.6812 103.178 16.8855 102.373 17.0105C101.453 17.1705 100.503 17.2905 99.5229 17.3905C98.4895 17.4453 97.4738 17.6822 96.5229 18.0905C96.203 18.244 95.9367 18.49 95.7584 18.7967C95.58 19.1034 95.498 19.4567 95.5229 19.8105C95.5012 20.1452 95.564 20.48 95.7055 20.7841C95.8471 21.0881 96.0628 21.3517 96.3329 21.5505C97.1179 21.9705 98.0042 22.1644 98.8929 22.1105ZM123.553 8.57055L118.393 24.5005H114.073L108.783 8.57055H112.143L116.493 23.1405H115.983L120.193 8.57055H123.553ZM126.753 17.6705V15.1405H138.483L138.033 15.8905V15.5005C138.042 14.7261 137.864 13.9609 137.513 13.2705C137.162 12.5759 136.612 12.0015 135.933 11.6205C135.144 11.1753 134.248 10.9572 133.343 10.9905C132.383 10.9687 131.435 11.1998 130.593 11.6605C129.813 12.1003 129.177 12.7569 128.763 13.5505C128.312 14.4563 128.092 15.4594 128.123 16.4705C128.094 17.5062 128.31 18.5341 128.753 19.4705C129.147 20.2799 129.778 20.9498 130.563 21.3905C131.432 21.8662 132.413 22.101 133.403 22.0705C134.076 22.0794 134.748 22.0055 135.403 21.8505C135.901 21.7192 136.374 21.5063 136.803 21.2205C137.133 20.9958 137.418 20.7108 137.643 20.3805C137.82 20.1021 137.932 19.7878 137.973 19.4605H141.213C141.14 20.1436 140.918 20.8023 140.563 21.3905C140.171 22.065 139.647 22.6535 139.023 23.1205C138.29 23.6678 137.468 24.0839 136.593 24.3505C135.525 24.6662 134.416 24.8179 133.303 24.8005C131.788 24.8497 130.285 24.5051 128.943 23.8005C127.714 23.123 126.699 22.115 126.013 20.8905C125.314 19.5711 124.97 18.093 125.013 16.6005C124.981 15.0913 125.351 13.6007 126.083 12.2805C126.777 11.0581 127.799 10.0537 129.033 9.38055C130.37 8.68017 131.864 8.33578 133.373 8.38055C134.87 8.32598 136.354 8.67115 137.673 9.38055C138.87 10.0588 139.848 11.0649 140.493 12.2805C141.176 13.588 141.519 15.0458 141.493 16.5205C141.493 16.7105 141.493 16.9405 141.493 17.1905C141.49 17.3583 141.473 17.5255 141.443 17.6905L126.753 17.6705ZM145.053 24.5005V8.57055H148.333V13.6505L147.463 13.2705C147.528 12.6255 147.693 11.9945 147.953 11.4005C148.196 10.8249 148.534 10.2942 148.953 9.83055C149.408 9.34991 149.96 8.97154 150.573 8.72055C151.279 8.43987 152.034 8.30385 152.793 8.32055C153.312 8.31266 153.83 8.37318 154.333 8.50055C154.588 8.54876 154.836 8.62593 155.073 8.73055L154.383 11.8005C154.19 11.6793 153.981 11.5851 153.763 11.5205C153.354 11.4022 152.929 11.3483 152.503 11.3605C151.81 11.3432 151.124 11.4942 150.503 11.8005C149.984 12.0704 149.54 12.4657 149.213 12.9505C148.894 13.4302 148.661 13.9614 148.523 14.5205C148.396 15.0782 148.332 15.6485 148.333 16.2205V24.5005H145.053ZM163.683 24.8205C162.78 24.8243 161.88 24.7168 161.003 24.5005C160.218 24.3167 159.468 24.006 158.783 23.5805C158.192 23.1934 157.696 22.6771 157.333 22.0705C156.981 21.4344 156.802 20.7174 156.813 19.9905V19.5805H160.053V19.8805C160.043 20.2253 160.132 20.5656 160.309 20.8614C160.486 21.1573 160.744 21.3964 161.053 21.5505C161.918 21.9566 162.869 22.1454 163.823 22.1005C164.446 22.1062 165.067 22.0357 165.673 21.8905C166.167 21.7864 166.629 21.5671 167.023 21.2505C167.185 21.1151 167.315 20.9452 167.403 20.7532C167.492 20.5612 167.536 20.3519 167.533 20.1405C167.544 19.8005 167.446 19.466 167.253 19.1855C167.061 18.905 166.784 18.6931 166.463 18.5805C165.42 18.1765 164.332 17.8979 163.223 17.7505C162.446 17.6153 161.678 17.435 160.923 17.2105C160.222 17.0078 159.549 16.7154 158.923 16.3405C158.364 15.9963 157.889 15.5317 157.533 14.9805C157.174 14.3766 156.993 13.683 157.013 12.9805C156.989 12.047 157.313 11.1381 157.923 10.4305C158.575 9.70266 159.405 9.15796 160.333 8.85055C161.421 8.48314 162.564 8.30391 163.713 8.32055C164.839 8.3075 165.958 8.50418 167.013 8.90055C167.961 9.23484 168.808 9.80632 169.473 10.5605C170.1 11.3022 170.431 12.2496 170.403 13.2205V13.5005H167.183V13.2905C167.191 13.0559 167.15 12.8222 167.064 12.6038C166.978 12.3854 166.848 12.1869 166.683 12.0205C166.322 11.6695 165.878 11.415 165.393 11.2805C164.853 11.1087 164.289 11.0243 163.723 11.0305C163.175 11.0287 162.629 11.0857 162.093 11.2005C161.605 11.2943 161.143 11.4958 160.743 11.7905C160.569 11.9169 160.428 12.0844 160.334 12.278C160.24 12.4716 160.195 12.6854 160.203 12.9005C160.196 13.1206 160.24 13.3392 160.33 13.5401C160.42 13.741 160.554 13.9189 160.723 14.0605C161.175 14.3795 161.679 14.6165 162.213 14.7605C162.947 14.964 163.691 15.1275 164.443 15.2505C165.212 15.3917 165.973 15.5719 166.723 15.7905C167.423 15.983 168.095 16.2654 168.723 16.6305C169.302 16.9587 169.79 17.4261 170.143 17.9905C170.52 18.5883 170.711 19.2842 170.693 19.9905C170.707 20.7477 170.506 21.4932 170.113 22.1405C169.723 22.76 169.187 23.2749 168.553 23.6405C167.864 24.0452 167.114 24.3356 166.333 24.5005C165.466 24.7173 164.576 24.8248 163.683 24.8205ZM175.423 17.6705V15.1405H187.153L186.703 15.8905V15.5005C186.709 14.7253 186.527 13.96 186.173 13.2705C185.825 12.5766 185.279 12.0021 184.603 11.6205C183.811 11.1749 182.911 10.9569 182.003 10.9905C181.046 10.9686 180.101 11.1997 179.263 11.6605C178.483 12.1003 177.847 12.7569 177.433 13.5505C176.979 14.4554 176.755 15.4585 176.783 16.4705C176.754 17.5062 176.97 18.5341 177.413 19.4705C177.811 20.2803 178.446 20.9498 179.233 21.3905C180.098 21.8663 181.076 22.1011 182.063 22.0705C182.736 22.0785 183.408 22.0046 184.063 21.8505C184.558 21.7192 185.028 21.5063 185.453 21.2205C185.783 20.9958 186.068 20.7108 186.293 20.3805C186.47 20.1021 186.582 19.7878 186.623 19.4605H189.863C189.793 20.1429 189.575 20.8018 189.223 21.3905C188.827 22.0653 188.3 22.6537 187.673 23.1205C186.94 23.6678 186.118 24.0839 185.243 24.3505C184.179 24.667 183.073 24.8187 181.963 24.8005C180.444 24.8501 178.939 24.5055 177.593 23.8005C176.367 23.1228 175.355 22.1146 174.673 20.8905C173.957 19.5758 173.595 18.0974 173.623 16.6005C173.588 15.0922 173.954 13.6016 174.683 12.2805C175.391 11.0519 176.431 10.0471 177.683 9.38055C179.016 8.68014 180.508 8.3357 182.013 8.38055C183.513 8.32613 185 8.67124 186.323 9.38055C187.52 10.0588 188.498 11.0649 189.143 12.2805C189.826 13.588 190.169 15.0458 190.143 16.5205C190.143 16.7105 190.143 16.9405 190.143 17.1905C190.155 17.357 190.155 17.5241 190.143 17.6905L175.423 17.6705Z" fill="black"/>
<path d="M15.333 0.5C11.2891 0.5684 7.43779 2.23934 4.62519 5.14569C1.81259 8.05204 0.268792 11.9561 0.332979 16C0.268792 20.0439 1.81259 23.948 4.62519 26.8543C7.43779 29.7607 11.2891 31.4316 15.333 31.5C19.3769 31.4316 23.2282 29.7607 26.0408 26.8543C28.8534 23.948 30.3972 20.0439 30.333 16C30.3972 11.9561 28.8534 8.05204 26.0408 5.14569C23.2282 2.23934 19.3769 0.5684 15.333 0.5ZM22.583 18.56L17.083 24.06L11.583 18.56L6.08298 24.06V13.75L11.583 8.25L17.083 13.75L22.583 8.25V18.56Z" fill="black"/>
</g>
<defs>
<clipPath id="clip0_2397_9332">
<rect width="192" height="31" fill="white" transform="translate(0.333008 0.5)"/>
</clipPath>
</defs>
</svg>
