<svg width="109" height="100" viewBox="0 0 109 100" fill="none" xmlns="http://www.w3.org/2000/svg">
<g clip-path="url(#clip0_2079_12769)">
<path d="M50.75 36.4194L52.44 38.1194L56.06 34.5094C55.323 34.4168 54.5745 34.5061 53.88 34.7694C52.7659 35.1731 51.7127 35.7284 50.75 36.4194ZM58.5 36.9994L54.89 40.5994L56.58 42.2894C57.2652 41.3232 57.82 40.2708 58.23 39.1594C58.4915 38.4714 58.5841 37.7306 58.5 36.9994ZM54.45 44.9994L52.45 42.9994L49.73 45.7294L52 48.0694L54.45 44.9994ZM49.86 50.7994L47.26 48.1994L43.69 51.7594C45.3701 51.6695 47.0544 51.8244 48.69 52.2194L49.86 50.7994ZM52.13 53.5094C52.7337 53.828 53.318 54.1819 53.88 54.5694C54.3653 54.911 54.8295 55.2817 55.27 55.6794L55.35 55.7594L57.78 58.1894L54.48 58.7394L54.23 58.8194C53.7991 58.9531 53.378 59.1168 52.97 59.3094C51.0127 60.2618 49.1594 61.4146 47.44 62.7494L46.53 63.4494C44.2988 65.3385 41.8148 66.907 39.15 68.1094C37.309 68.9166 35.2728 69.1703 33.29 68.8394C31.0658 68.3634 29.1043 67.0629 27.8 65.1994C25.9428 63.9024 24.6429 61.9526 24.16 59.7394C23.8291 57.7566 24.0828 55.7204 24.89 53.8794C26.0948 51.2159 27.6631 48.7322 29.55 46.4994L30.25 45.5894C31.5848 43.87 32.7376 42.0167 33.69 40.0594C33.8814 39.6497 34.0484 39.2289 34.19 38.7994C34.2192 38.7076 34.2426 38.6141 34.26 38.5194L34.81 35.2194L37.19 37.6094C37.31 37.7294 37.42 37.8594 37.53 37.9894C38.2605 38.8544 38.8942 39.7967 39.42 40.7994L46.97 34.7994C48.7065 33.3743 50.6706 32.2519 52.78 31.4794C54.0076 30.9739 55.3566 30.84 56.6596 31.0942C57.9627 31.3484 59.1624 31.9796 60.11 32.9094C61.0331 33.8613 61.6583 35.0619 61.9087 36.364C62.1592 37.6661 62.0241 39.013 61.52 40.2394C60.7167 42.3338 59.5711 44.2803 58.13 45.9994L52.13 53.5094ZM48 38.5494L45 40.9494L47.34 43.2894L50 40.5694L48 38.5494ZM44.84 45.7494L42.21 43.1194L40.8 44.2394C41.2028 45.9008 41.3578 47.6127 41.26 49.3194L44.84 45.7494ZM38.84 56.6594L31.44 64.0594C32.1323 64.7595 33.0159 65.2395 33.98 65.4394C35.3091 65.6351 36.6664 65.4441 37.89 64.8894C40.1945 63.8326 42.3443 62.4667 44.28 60.8294L45.38 59.9794C47.0286 58.7104 48.7815 57.5831 50.62 56.6094C50.0503 56.3112 49.4586 56.0571 48.85 55.8494C47.2055 55.2973 45.4661 55.0844 43.737 55.2237C42.0079 55.3629 40.325 55.8513 38.79 56.6594H38.84ZM28.94 61.6094L36.34 54.2094C37.1355 52.6808 37.6162 51.0082 37.7536 49.2905C37.891 47.5728 37.6824 45.845 37.14 44.2094C36.9313 43.6125 36.6807 43.031 36.39 42.4694C35.4067 44.2941 34.2727 46.0334 33 47.6694C32.74 48.0094 32.46 48.3794 32.15 48.7694C30.5106 50.7036 29.1445 52.8536 28.09 55.1594C27.5353 56.383 27.3443 57.7403 27.54 59.0694C27.7455 60.0358 28.2326 60.9197 28.94 61.6094Z" fill="black"/>
<path d="M46.3301 67.4008L41.4201 61.0008V67.4008H37.8701V52.8008H41.4201V59.2108L46.2901 52.8008H50.4701L44.8201 60.0008L50.6801 67.4408L46.3301 67.4008Z" fill="black"/>
<path d="M51.7699 60.0796C51.7448 58.7378 52.0651 57.412 52.6999 56.2296C53.2971 55.1197 54.1993 54.2037 55.2999 53.5896C56.4598 52.9268 57.774 52.5819 59.1099 52.5896C60.7083 52.5547 62.2733 53.0505 63.5599 53.9996C64.7869 54.9257 65.6503 56.2527 65.9999 57.7496H62.1299C61.864 57.1701 61.428 56.6853 60.8799 56.3596C60.168 55.9553 59.3413 55.8006 58.5313 55.9202C57.7213 56.0397 56.9746 56.4268 56.4099 57.0196C55.7038 57.8776 55.3467 58.9702 55.4099 60.0796C55.3467 61.1891 55.7038 62.2816 56.4099 63.1396C56.9746 63.7325 57.7213 64.1195 58.5313 64.2391C59.3413 64.3587 60.168 64.204 60.8799 63.7996C61.428 63.4739 61.864 62.9891 62.1299 62.4096H65.9999C65.6378 63.9087 64.7599 65.2327 63.5199 66.1496C62.2253 67.0776 60.6621 67.5553 59.0699 67.5096C57.7405 67.5265 56.4289 67.2029 55.2599 66.5696C54.1678 65.9444 53.2684 65.0311 52.6599 63.9296C52.039 62.7435 51.7325 61.4179 51.7699 60.0796Z" fill="black"/>
<path d="M84.75 52.8008V67.4008H81.2V58.6408L77.93 67.4008H75.06L71.77 58.6208V67.4008H68.22V52.8008H72.42L76.52 62.9108L80.52 52.8008H84.75Z" fill="black"/>
</g>
<defs>
<clipPath id="clip0_2079_12769">
<rect width="61" height="38" fill="white" transform="translate(24 31)"/>
</clipPath>
</defs>
</svg>
