<svg width="166" height="44" viewBox="0 0 166 44" fill="none" xmlns="http://www.w3.org/2000/svg">
<path d="M64.4591 30.3394C66.1877 30.3394 67.8775 29.8268 69.3148 28.8664C70.7521 27.9061 71.8723 26.5411 72.5338 24.944C73.1953 23.347 73.3684 21.5897 73.0312 19.8943C72.694 18.1989 71.8615 16.6416 70.6392 15.4193C69.4169 14.197 67.8596 13.3645 66.1642 13.0273C64.4688 12.6901 62.7115 12.8632 61.1145 13.5247C59.5174 14.1862 58.1524 15.3064 57.1921 16.7437C56.2317 18.181 55.7191 19.8708 55.7191 21.5994C55.7084 22.7501 55.9272 23.8914 56.3627 24.9566C56.7981 26.0218 57.4415 26.9896 58.2552 27.8033C59.0689 28.617 60.0367 29.2604 61.1019 29.6958C62.1671 30.1313 63.3084 30.3501 64.4591 30.3394ZM64.4591 26.5894C63.8024 26.6066 63.1492 26.4882 62.5403 26.2417C61.9314 25.9952 61.3798 25.6259 60.92 25.1567C60.4602 24.6875 60.1021 24.1286 59.8679 23.5148C59.6338 22.901 59.5287 22.2456 59.5591 21.5894C59.5292 20.9279 59.6337 20.2673 59.8662 19.6474C60.0987 19.0274 60.4544 18.461 60.9119 17.9824C61.3694 17.5038 61.9192 17.1228 62.528 16.8625C63.1368 16.6023 63.792 16.4681 64.4541 16.4681C65.1162 16.4681 65.7715 16.6023 66.3803 16.8625C66.9891 17.1228 67.5388 17.5038 67.9963 17.9824C68.4538 18.461 68.8096 19.0274 69.0421 19.6474C69.2746 20.2673 69.379 20.9279 69.3491 21.5894C69.3795 22.2447 69.2747 22.8993 69.0411 23.5124C68.8076 24.1255 68.4503 24.6839 67.9916 25.1529C67.5329 25.622 66.9825 25.9915 66.3748 26.2387C65.7671 26.4858 65.115 26.6052 64.4591 26.5894ZM84.9091 13.1994V19.1294C84.458 18.6351 83.903 18.247 83.284 17.9928C82.665 17.7387 81.9974 17.6248 81.3291 17.6594C78.1891 17.6594 75.5891 20.4194 75.5891 23.9994C75.5891 27.5794 78.1891 30.3394 81.3291 30.3394C81.9974 30.374 82.665 30.2601 83.284 30.0059C83.903 29.7517 84.458 29.3636 84.9091 28.8694V29.9994H88.5091V13.1994H84.9091ZM82.0491 26.9294C81.6628 26.9473 81.277 26.8832 80.9172 26.7413C80.5574 26.5994 80.2317 26.383 79.9616 26.1062C79.6914 25.8295 79.4829 25.4986 79.3498 25.1355C79.2166 24.7724 79.1619 24.3852 79.1891 23.9994C79.1891 23.2409 79.4904 22.5134 80.0268 21.9771C80.5631 21.4407 81.2906 21.1394 82.0491 21.1394C82.8076 21.1394 83.5351 21.4407 84.0714 21.9771C84.6078 22.5134 84.9091 23.2409 84.9091 23.9994C84.9364 24.3852 84.8816 24.7724 84.7485 25.1355C84.6153 25.4986 84.4068 25.8295 84.1367 26.1062C83.8665 26.383 83.5408 26.5994 83.181 26.7413C82.8212 26.8832 82.4355 26.9473 82.0491 26.9294ZM93.9091 16.9294C94.3363 16.9294 94.7539 16.8027 95.1092 16.5654C95.4644 16.328 95.7412 15.9907 95.9047 15.596C96.0682 15.2013 96.111 14.767 96.0276 14.348C95.9443 13.929 95.7386 13.5441 95.4365 13.242C95.1344 12.9399 94.7495 12.7342 94.3305 12.6509C93.9115 12.5675 93.4772 12.6103 93.0825 12.7738C92.6878 12.9373 92.3505 13.2141 92.1132 13.5693C91.8758 13.9246 91.7491 14.3422 91.7491 14.7694C91.7517 15.3424 91.9798 15.8913 92.384 16.2974C92.7883 16.7035 93.3362 16.9341 93.9091 16.9394V16.9294ZM92.1091 29.9994H95.7091V17.9994H92.1091V29.9994ZM105.109 30.3394C106.36 30.3256 107.579 29.942 108.612 29.237C109.646 28.532 110.447 27.5371 110.916 26.3775C111.386 25.2178 111.501 23.9453 111.249 22.7202C110.996 21.495 110.387 20.3718 109.497 19.4922C108.608 18.6125 107.478 18.0156 106.25 17.7766C105.023 17.5376 103.751 17.6671 102.597 18.149C101.443 18.6308 100.457 19.4434 99.7629 20.4844C99.0693 21.5255 98.6992 22.7484 98.6991 23.9994C98.6924 24.8355 98.8525 25.6646 99.17 26.4381C99.4875 27.2117 99.956 27.9141 100.548 28.5045C101.14 29.0948 101.844 29.5611 102.619 29.8762C103.393 30.1912 104.223 30.3487 105.059 30.3394H105.109ZM105.109 26.8294C104.734 26.8467 104.359 26.7851 104.009 26.6488C103.659 26.5124 103.341 26.3042 103.076 26.0376C102.812 25.771 102.606 25.4519 102.472 25.1008C102.338 24.7498 102.279 24.3746 102.299 23.9994C102.299 23.2674 102.59 22.5654 103.108 22.0478C103.625 21.5302 104.327 21.2394 105.059 21.2394C105.791 21.2394 106.493 21.5302 107.011 22.0478C107.528 22.5654 107.819 23.2674 107.819 23.9994C107.839 24.3702 107.781 24.741 107.65 25.0885C107.519 25.4361 107.318 25.7527 107.059 26.0185C106.799 26.2844 106.488 26.4937 106.144 26.6332C105.8 26.7728 105.43 26.8396 105.059 26.8294H105.109ZM121.639 17.6594C120.961 17.6142 120.281 17.723 119.651 17.9776C119.02 18.2321 118.456 18.6259 117.999 19.1294V17.9994H114.399V34.7994H117.999V28.8694C118.448 29.3634 119.002 29.7515 119.619 30.0057C120.236 30.2599 120.902 30.3739 121.569 30.3394C124.719 30.3394 127.309 27.5794 127.309 23.9994C127.309 20.4194 124.739 17.6594 121.589 17.6594H121.639ZM120.919 26.9294C120.528 26.9561 120.135 26.8986 119.768 26.7607C119.401 26.6228 119.068 26.4077 118.791 26.1299C118.514 25.8522 118.301 25.5182 118.164 25.1507C118.027 24.7831 117.971 24.3905 117.999 23.9994C117.976 23.6102 118.033 23.2205 118.166 22.8541C118.299 22.4877 118.506 22.1524 118.773 21.8687C119.04 21.585 119.363 21.359 119.721 21.2045C120.079 21.05 120.464 20.9703 120.854 20.9703C121.244 20.9703 121.63 21.05 121.988 21.2045C122.345 21.359 122.668 21.585 122.935 21.8687C123.203 22.1524 123.409 22.4877 123.542 22.8541C123.675 23.2205 123.732 23.6102 123.709 23.9994C123.736 24.3834 123.682 24.7689 123.55 25.1305C123.418 25.4922 123.211 25.822 122.943 26.0985C122.675 26.3749 122.352 26.5918 121.995 26.735C121.637 26.8781 121.254 26.9444 120.869 26.9294H120.919ZM138.999 17.9994V19.1294C138.55 18.6354 137.997 18.2473 137.379 17.9931C136.762 17.7388 136.096 17.6249 135.429 17.6594C132.279 17.6594 129.689 20.4194 129.689 23.9994C129.689 27.5794 132.279 30.3394 135.429 30.3394C136.096 30.3739 136.762 30.2599 137.379 30.0057C137.997 29.7515 138.55 29.3634 138.999 28.8694V29.9994H142.599V17.9994H138.999ZM136.149 26.9294C135.766 26.9415 135.385 26.8731 135.03 26.7287C134.675 26.5842 134.354 26.3669 134.088 26.0908C133.822 25.8147 133.618 25.4859 133.487 25.1256C133.356 24.7654 133.302 24.3817 133.329 23.9994C133.275 23.5955 133.309 23.1848 133.426 22.7947C133.544 22.4047 133.744 22.0444 134.013 21.7378C134.281 21.4313 134.612 21.1857 134.983 21.0174C135.354 20.8491 135.757 20.7621 136.164 20.7621C136.572 20.7621 136.974 20.8491 137.345 21.0174C137.716 21.1857 138.047 21.4313 138.316 21.7378C138.584 22.0444 138.784 22.4047 138.902 22.7947C139.02 23.1848 139.053 23.5955 138.999 23.9994C139.026 24.3808 138.972 24.7636 138.842 25.1232C138.712 25.4827 138.508 25.811 138.243 26.087C137.979 26.363 137.659 26.5805 137.305 26.7256C136.952 26.8707 136.571 26.9401 136.189 26.9294H136.149ZM153.799 17.9994L151.549 25.3394L148.879 17.9994H144.879L149.659 29.4494C149.497 30.0962 149.1 30.6595 148.546 31.0293C147.991 31.3991 147.318 31.5489 146.659 31.4494V34.7994C150.019 34.9694 152.159 33.4594 153.499 29.6394L157.639 17.9994H153.799Z" fill="black"/>
<path d="M37.4007 43.0998C37.4007 43.0998 52.0707 34.0998 46.2007 16.2498C46.2007 16.2498 41.7707 0.579819 23.0907 0.389819C23.0907 0.389819 5.64065 -0.320181 0.720653 19.7498C-0.0787525 24.0759 0.354348 28.5395 1.97051 32.6312C3.58667 36.7229 6.32077 40.2777 9.86065 42.8898L11.6407 40.6398C11.6407 40.6398 1.29065 33.0598 5.94065 20.6398C5.94065 20.6398 9.80065 7.39982 26.2507 11.8598C23.4605 11.3091 20.5656 11.7489 18.0648 13.1033C15.564 14.4578 13.614 16.6421 12.5507 19.2798C12.5507 19.2798 8.39065 26.5998 16.4607 33.8698L18.3807 31.7498C18.3807 31.7498 12.5407 27.7498 14.6707 21.0698C14.6707 21.0698 17.6707 12.5198 26.0707 14.6798C26.0707 14.6798 33.8507 15.6798 33.4107 25.0198C33.4107 25.0198 33.4907 28.5198 29.4107 31.6698L31.0007 33.9998C31.0007 33.9998 43.2507 24.6798 35.1607 10.9998C35.1607 10.9998 31.3807 4.74982 26.1607 3.44982C26.1607 3.44982 36.3707 3.35982 42.4907 14.7498C43.9394 17.7508 44.6751 21.046 44.6404 24.3782C44.6057 27.7105 43.8015 30.9896 42.2907 33.9598C42.2907 33.9598 38.7007 39.1398 35.9807 40.9598L37.4007 43.0998Z" fill="black"/>
<path d="M14.9409 36.1192L13.2909 38.2492C13.2909 38.2492 5.19087 32.8592 8.87087 22.4492C8.61238 25.0583 9.03588 27.6899 10.0999 30.0861C11.164 32.4824 12.832 34.5613 14.9409 36.1192Z" fill="black"/>
</svg>
