<svg width="60" height="60" viewBox="0 0 60 60" fill="none" xmlns="http://www.w3.org/2000/svg">
<rect width="60" height="60" rx="30" fill="#C10000"/>
<path d="M42.0533 30.174C42.24 30.174 42.4133 30.254 42.56 30.4007L44.2667 32.1073C44.56 32.3873 44.56 32.854 44.2667 33.134L42.9333 34.4673L40.2 31.734L41.5333 30.4007C41.68 30.254 41.8667 30.174 42.0533 30.174ZM39.4267 32.5073L42.16 35.2407L34.08 43.334H31.3333V40.5873L39.4267 32.5073ZM39.3333 18.0007C40.8 18.0007 42 19.2007 42 20.6673V26.0007L28.6667 39.334V42.0007H20.6667C19.2 42.0007 18 40.8007 18 39.334L18 20.6673C18 19.2007 19.2 18.0007 20.6667 18.0007H26.24C26.8 16.454 28.2667 15.334 30 15.334C31.7333 15.334 33.2 16.454 33.76 18.0007L39.3333 18.0007ZM30 18.0007C29.2667 18.0007 28.6667 18.6007 28.6667 19.334C28.6667 20.0673 29.2667 20.6673 30 20.6673C30.7333 20.6673 31.3333 20.0673 31.3333 19.334C31.3333 18.6007 30.7333 18.0007 30 18.0007Z" fill="white"/>
</svg>
