<svg width="331" height="80" viewBox="0 0 331 80" fill="none" xmlns="http://www.w3.org/2000/svg">
<g clip-path="url(#clip0_2396_10053)">
<path d="M41.4148 43.8998C40.2548 34.9998 49.9448 30.8498 54.3348 29.9998L51.5448 24.9998C44.3348 28.0498 40.7648 22.6998 39.8348 19.9998C39.2148 18.2098 39.2448 16.3498 36.9548 16.3498C35.0548 16.3498 33.9548 18.9398 31.0848 18.2098C28.2148 17.4798 28.6148 14.5098 26.1748 14.5098C22.3248 14.5098 16.6548 24.1898 11.1048 16.3798L6.15484 20.9198C9.15484 22.4698 14.9148 27.4698 13.7748 35.0598C13.2727 37.8912 12.0268 40.5383 10.1648 42.7298C9.86484 43.1098 9.56484 43.4598 9.23484 43.8098C8.75484 44.3398 8.23484 44.8098 7.75484 45.3098C7.27484 45.8098 6.81484 46.1598 6.34484 46.5498L5.49484 47.2198C4.99484 47.5998 4.49484 47.9498 4.02484 48.2798C3.04616 48.9414 2.02382 49.5361 0.964844 50.0598L4.96484 57.1898C5.46823 56.9626 5.98602 56.7689 6.51484 56.6098C6.93484 56.4898 7.36484 56.3898 7.79484 56.2998L8.79484 56.1498C9.25642 56.0983 9.72041 56.0716 10.1848 56.0698C10.6942 56.0348 11.2054 56.0348 11.7148 56.0698C12.0448 56.0698 12.3748 56.1298 12.7148 56.1898C13.9285 56.3644 15.1169 56.6833 16.2548 57.1398C19.7048 58.5198 18.0048 61.9898 22.5848 63.5798C29.9148 63.0398 26.1448 60.4998 32.2648 59.7698C37.1348 59.1898 40.3848 62.7698 41.3848 64.3898L47.9148 59.2898C47.9148 59.2898 42.9948 55.9998 41.4148 43.8998ZM37.5248 37.2898C38.2689 38.601 38.6616 40.0822 38.6648 41.5898H29.9848L34.4148 34.1298C35.7065 34.8976 36.7777 35.9861 37.5248 37.2898ZM30.7148 53.8498C29.0196 54.3951 27.2201 54.5353 25.4608 54.2592C23.7015 53.9831 22.0315 53.2982 20.5848 52.2598C19.1316 51.2186 17.9458 49.8478 17.1248 48.2598C16.2951 46.6852 15.8432 44.9392 15.8048 43.1598C15.7734 41.3773 16.1533 39.6116 16.9148 37.9998C17.6822 36.393 18.8159 34.9887 20.2248 33.8998C22.3062 32.5307 24.7339 31.7816 27.2248 31.7398L25.6648 34.9998C24.427 35.2411 23.2626 35.7684 22.2648 36.5398C21.2734 37.3189 20.4731 38.3142 19.9248 39.4498C19.1094 41.1669 18.9229 43.1159 19.3982 44.9564C19.8734 46.7969 20.98 48.4121 22.5248 49.5198C23.5455 50.2723 24.7262 50.7788 25.9748 50.9998C27.2204 51.1977 28.495 51.0983 29.6948 50.7098C30.8969 50.3286 31.9928 49.671 32.8948 48.7898H37.3348C36.0648 51.7998 32.4048 53.3098 30.7148 53.8498ZM38.2148 46.6098H21.3348L30.4548 30.8898H19.0848L20.5048 27.3198H36.3948L27.4748 43.1698H38.8648L38.2148 46.6098Z" fill="black"/>
<path d="M5.06409 36.4805C4.45409 41.4105 5.06409 54.1105 12.1941 65.4805C7.99409 60.9405 0.684092 48.7605 5.06409 36.4805Z" fill="black"/>
<path d="M7.58428 36.4805C6.98428 41.4105 7.58428 54.1105 14.7243 65.4805C10.5243 60.9405 3.21428 48.7605 7.58428 36.4805Z" fill="black"/>
<path d="M10.4349 39.5605C9.8249 43.5605 9.6649 52.4405 15.8449 62.2105C11.4649 57.8305 6.8049 46.6905 10.4349 39.5605Z" fill="black"/>
<path d="M74.2048 42.9991H61.4648V40.6491L69.6748 28.8691H61.6748V25.8691H73.9948V28.2191L65.7848 39.9991H74.2048V42.9991ZM83.6648 42.9991H80.0448V28.8891H75.3848V25.8891H88.3348V28.8891H83.6648V42.9991ZM99.8848 42.9991L98.6348 38.9191H92.3948L91.1448 42.9991H87.2348L93.2348 25.7891H97.6748L103.795 42.9991H99.8848ZM96.5248 31.8891C96.4448 31.6191 96.3448 31.2691 96.2148 30.8891L95.8248 29.6191C95.7048 29.1791 95.5948 28.8091 95.5148 28.4891C95.4348 28.8091 95.3248 29.2091 95.1848 29.6891C95.0548 30.1491 94.9248 30.5991 94.7948 31.0291C94.6648 31.4591 94.5948 31.7391 94.5348 31.9191L93.3048 35.9191H97.7748L96.5248 31.8891ZM121.335 42.9991H116.725L109.255 29.9991H109.165C109.165 30.3991 109.165 30.8091 109.165 31.2291C109.165 31.6491 109.165 32.0291 109.165 32.4491C109.165 32.8691 109.225 33.2591 109.245 33.6691C109.265 34.0791 109.245 34.4791 109.245 34.8991V42.9991H106.005V25.8691H110.595L118.035 38.7091H118.105C118.105 38.3091 118.105 37.9091 118.105 37.5291C118.105 37.1491 118.105 36.7391 118.105 36.3491C118.105 35.9591 118.105 35.5591 118.105 35.1791V33.9791V25.8691H121.335V42.9991ZM140.975 42.9991H136.335L128.875 29.9991H128.775C128.775 30.3991 128.775 30.8091 128.825 31.2291C128.875 31.6491 128.825 32.0291 128.875 32.4491C128.925 32.8691 128.875 33.2591 128.945 33.6691C129.015 34.0791 128.945 34.4791 128.945 34.8991V42.9991H125.735V25.8691H130.335L137.775 38.7091H137.845C137.845 38.3091 137.845 37.9091 137.795 37.5291C137.745 37.1491 137.795 36.7391 137.795 36.3491C137.795 35.9591 137.795 35.5591 137.795 35.1791L137.745 33.9791V25.8691H141.015L140.975 42.9991ZM155.285 42.9991H145.335V25.8691H155.195V28.8691H148.955V32.6391H154.765V35.6391H148.955V39.9991H155.195L155.285 42.9991ZM163.965 25.8691C165.269 25.8299 166.569 26.0229 167.805 26.4391C168.727 26.7429 169.522 27.3444 170.065 28.1491C170.586 29.0059 170.843 29.997 170.805 30.9991C170.824 31.6762 170.687 32.3487 170.404 32.9644C170.122 33.58 169.701 34.1223 169.175 34.5491C168.701 34.9492 168.176 35.2854 167.615 35.5491L172.615 43.0091H168.615L164.535 36.4391H162.585V42.9991H158.965V25.8691H163.965ZM163.705 28.8691H162.595V33.4991H163.775C164.432 33.5231 165.088 33.4352 165.715 33.2391C166.155 33.1075 166.536 32.8286 166.795 32.4491C167.031 32.0501 167.149 31.5924 167.135 31.1291C167.167 30.6697 167.031 30.2143 166.754 29.8468C166.476 29.4793 166.075 29.2244 165.625 29.1291C164.987 28.9305 164.323 28.8327 163.655 28.8391L163.705 28.8691ZM180.265 32.9491L183.845 25.8991H187.755L182.065 36.3591V42.9991H178.465V36.4491L172.775 25.8691H176.715L180.265 32.9491Z" fill="black"/>
<path d="M69.873 53.4705C69.8774 54.0888 69.7549 54.7014 69.513 55.2705C69.285 55.8156 68.9442 56.3064 68.513 56.7105L69.603 58.0005L68.393 59.0005L67.223 57.5605C66.6385 57.7963 66.0134 57.9152 65.383 57.9105C64.5703 57.9238 63.7678 57.7275 63.053 57.3405C62.3848 56.9606 61.8345 56.4034 61.463 55.7305C61.0752 55.0409 60.8752 54.2616 60.883 53.4705C60.8767 52.6764 61.0766 51.8942 61.463 51.2005C61.8345 50.5275 62.3848 49.9703 63.053 49.5905C63.7644 49.1926 64.568 48.9891 65.383 49.0005C66.1917 48.9888 66.989 49.1924 67.693 49.5905C68.3791 49.9638 68.9471 50.5214 69.333 51.2005C69.7099 51.8963 69.8962 52.6794 69.873 53.4705ZM65.383 56.2105C65.6154 56.2121 65.8472 56.1853 66.073 56.1305L64.953 54.7405L66.163 53.7405L67.393 55.2705C67.7996 54.7531 68.0088 54.108 67.983 53.4505C67.9915 52.9572 67.8781 52.4695 67.653 52.0305C67.4562 51.6107 67.135 51.2615 66.733 51.0305C66.326 50.7856 65.858 50.6608 65.383 50.6705C64.8987 50.6611 64.4211 50.7857 64.003 51.0305C63.6087 51.2679 63.2923 51.6155 63.093 52.0305C62.8823 52.4742 62.773 52.9593 62.773 53.4505C62.773 53.9417 62.8823 54.4268 63.093 54.8705C63.3 55.2802 63.6146 55.6259 64.003 55.8705C64.4248 56.1041 64.901 56.2214 65.383 56.2105Z" fill="black"/>
<path d="M74.9246 57.9099C74.267 57.921 73.6151 57.7879 73.0146 57.5199C72.4861 57.2725 72.0413 56.8763 71.7346 56.3799C71.4225 55.8325 71.2669 55.2098 71.2846 54.5799V49.1699H73.0946V54.4499C73.078 54.6898 73.1122 54.9304 73.1949 55.1561C73.2776 55.3818 73.407 55.5876 73.5746 55.7599C73.964 56.052 74.4377 56.2099 74.9246 56.2099C75.4114 56.2099 75.8851 56.052 76.2746 55.7599C76.4422 55.5876 76.5715 55.3818 76.6542 55.1561C76.737 54.9304 76.7711 54.6898 76.7546 54.4499V49.1699H78.5646V54.5799C78.581 55.2123 78.418 55.8363 78.0946 56.3799C77.7966 56.8799 77.3537 57.2775 76.8246 57.5199C76.2282 57.79 75.579 57.9232 74.9246 57.9099Z" fill="black"/>
<path d="M85.2645 55.8699H81.7245L81.0345 57.7399H79.1445L82.4445 49.1699H84.5245L87.8445 57.7399H85.9445L85.2645 55.8699ZM84.7145 54.3399L83.4945 50.9999L82.2745 54.3599L84.7145 54.3399Z" fill="black"/>
<path d="M94.8734 56.0599V57.7399H88.9434V49.1699H90.7634V56.0599H94.8734Z" fill="black"/>
<path d="M96.1641 49.1699H97.9841V57.7399H96.1641V49.1699Z" fill="black"/>
<path d="M101.785 50.8499H99.2148V49.1699H106.135V50.8499H103.585V57.7399H101.785V50.8499Z" fill="black"/>
<path d="M114.865 49.1699L111.705 54.3599V57.7399H109.885V54.3599L106.725 49.1699H108.725L110.725 52.6999L112.725 49.1699H114.865Z" fill="black"/>
<path d="M124.033 56.0599V57.7399H118.113V49.1699H119.923V56.0599H124.033Z" fill="black"/>
<path d="M131.614 56.1099V57.7399H125.334V49.1699H131.514V50.7999H127.134V52.6099H131.224V54.2299H127.134V56.1099H131.614Z" fill="black"/>
<path d="M138.544 55.8699H135.004L134.334 57.7399H132.434L135.734 49.1699H137.814L141.134 57.7399H139.234L138.544 55.8699ZM137.994 54.3399L136.784 50.9999L135.554 54.3599L137.994 54.3399Z" fill="black"/>
<path d="M142.894 50.8499H140.334V49.1699H147.264V50.8499H144.704V57.7399H142.904L142.894 50.8499Z" fill="black"/>
<path d="M155.883 49.1699V57.7399H154.083V54.1899H150.333V57.7399H148.523V49.1699H150.333V52.5299H154.123V49.1699H155.883Z" fill="black"/>
<path d="M164.124 56.1099V57.7399H157.814V49.1699H163.994V50.7999H159.614V52.6099H163.704V54.2299H159.614V56.1099H164.124Z" fill="black"/>
<path d="M168.394 54.6805H167.624V57.7405H165.824V49.1705H169.514C170.354 49.1112 171.185 49.368 171.844 49.8905C172.123 50.1551 172.34 50.4776 172.48 50.8353C172.62 51.1931 172.679 51.5772 172.654 51.9605C172.688 52.6158 172.486 53.2617 172.084 53.7805C171.643 54.2525 171.047 54.5506 170.404 54.6205L172.884 57.7405H170.724L168.394 54.6805ZM167.624 53.1105H169.384C169.761 53.142 170.137 53.047 170.454 52.8405C170.572 52.7282 170.663 52.5907 170.72 52.4383C170.777 52.2859 170.799 52.1226 170.784 51.9605C170.799 51.7999 170.777 51.6381 170.72 51.4873C170.663 51.3366 170.572 51.2009 170.454 51.0905C170.139 50.8798 169.762 50.7812 169.384 50.8105H167.624V53.1105Z" fill="black"/>
<path d="M180.885 54H176.885V58H180.885V54Z" fill="black"/>
</g>
<defs>
<clipPath id="clip0_2396_10053">
<rect width="188" height="52" fill="white" transform="translate(0.333984 14)"/>
</clipPath>
</defs>
</svg>
